<svg xmlns="http://www.w3.org/2000/svg" xmlns:xlink="http://www.w3.org/1999/xlink" viewBox="0 0 66 65" fill="#fff" fill-rule="evenodd" stroke="#000" stroke-linecap="round" stroke-linejoin="round"><use xlink:href="#A" x=".5" y=".5"/><symbol id="A" overflow="visible"><path d="M18.608 13.74h13.248c3.223 0 7.47 0 9.668 1.33 2.404 1.432 4.296 4.04 4.296 7.622 0 3.886-2.045 6.803-5.42 8.183v.102c4.503.92 6.956 4.298 6.956 8.8 0 5.37-3.837 10.485-11.1 10.485H18.608zm4.856 15.703h9.724c5.523 0 7.775-1.994 7.775-5.83 0-5.066-3.58-5.78-7.775-5.78h-9.724zm0 16.726h12.18c4.193 0 6.853-2.558 6.853-6.548 0-4.757-3.836-6.086-7.93-6.086H23.465zM59.78 32.016c0 15.343-12.436 27.78-27.78 27.78S4.22 47.36 4.22 32.016 16.657 4.24 32 4.24s27.78 12.436 27.78 27.778zM32 .001C14.327.001 0 14.328 0 32s14.327 32 32 32 32-14.328 32-32S49.673 0 32 0z" stroke="none" fill="#000" fill-rule="nonzero"/></symbol></svg>